<svg width="72" height="72" viewBox="0 0 72 72" fill="none" xmlns="http://www.w3.org/2000/svg">
<path d="M30.0545 44.5913L45.4831 35.6731L30.0545 26.7548V44.5913ZM64.4196 21.3147C64.806 22.7118 65.0736 24.5847 65.252 26.9629C65.46 29.3411 65.5492 31.3923 65.5492 33.1759L65.7276 35.6731C65.7276 42.1834 65.2519 46.9695 64.4196 50.0315C63.6764 52.707 61.9522 54.4312 59.2767 55.1743C57.8795 55.5608 55.3229 55.8284 51.3989 56.0067C47.5343 56.2148 43.9967 56.304 40.7267 56.304L36 56.4824C23.5442 56.4824 15.7853 56.0067 12.7233 55.1743C10.0479 54.4312 8.32366 52.707 7.58047 50.0315C7.19402 48.6343 6.92647 46.7614 6.7481 44.3832C6.54001 42.005 6.45083 39.9538 6.45083 38.1702L6.27246 35.6731C6.27246 29.1627 6.7481 24.3766 7.58047 21.3147C8.32366 18.6392 10.0479 16.915 12.7233 16.1718C14.1205 15.7853 16.6771 15.5178 20.6011 15.3394C24.4657 15.1313 28.0033 15.0421 31.2733 15.0421L36 14.8638C48.4559 14.8638 56.2148 15.3394 59.2767 16.1718C61.9522 16.915 63.6764 18.6392 64.4196 21.3147Z" fill="#A5FA57"/>
</svg>
