<svg width="73" height="72" viewBox="0 0 73 72" fill="none" xmlns="http://www.w3.org/2000/svg">
<path d="M57.9581 15.8448C54.0044 14.0017 49.7236 12.6639 45.2645 11.891C45.2254 11.8898 45.1865 11.8971 45.1505 11.9125C45.1146 11.9279 45.0824 11.951 45.0564 11.9802C44.5213 12.9612 43.897 14.2395 43.4808 15.2205C38.7511 14.507 33.9412 14.507 29.2116 15.2205C28.7954 14.2098 28.1711 12.9612 27.6063 11.9802C27.5765 11.9207 27.4874 11.891 27.3982 11.891C22.939 12.6639 18.688 14.0017 14.7045 15.8448C14.6748 15.8448 14.6451 15.8745 14.6153 15.9042C6.52943 28.0033 4.29987 39.7755 5.39979 51.4287C5.39979 51.4881 5.42951 51.5476 5.48897 51.5773C10.8399 55.5013 15.9828 57.8795 21.0662 59.4551C21.1554 59.4848 21.2446 59.4551 21.2743 59.3957C22.4634 57.7606 23.5336 56.0364 24.4552 54.2231C24.5146 54.1041 24.4552 53.9852 24.3362 53.9555C22.6418 53.3015 21.0365 52.5286 19.4609 51.6368C19.342 51.5773 19.342 51.3989 19.4312 51.3098C19.7582 51.0719 20.0852 50.8044 20.4122 50.5666C20.4717 50.5071 20.5608 50.5071 20.6203 50.5368C30.8466 55.2041 41.8755 55.2041 51.9829 50.5368C52.0423 50.5071 52.1315 50.5071 52.191 50.5666C52.518 50.8341 52.845 51.0719 53.172 51.3395C53.2909 51.4287 53.2909 51.607 53.1423 51.6665C51.5964 52.588 49.9614 53.3312 48.2669 53.9852C48.148 54.015 48.1183 54.1636 48.148 54.2528C49.0993 56.0662 50.1695 57.7904 51.3289 59.4254C51.4181 59.4551 51.5072 59.4848 51.5964 59.4551C56.7096 57.8795 61.8524 55.5013 67.2034 51.5773C67.2628 51.5476 67.2926 51.4881 67.2926 51.4287C68.6006 37.9621 65.1225 26.2791 58.077 15.9042C58.0473 15.8745 58.0176 15.8448 57.9581 15.8448ZM26.001 44.3238C22.9391 44.3238 20.3825 41.4997 20.3825 38.0215C20.3825 34.5434 22.8796 31.7193 26.001 31.7193C29.1521 31.7193 31.6492 34.5731 31.6195 38.0215C31.6195 41.4997 29.1224 44.3238 26.001 44.3238ZM46.7211 44.3238C43.6592 44.3238 41.1026 41.4997 41.1026 38.0215C41.1026 34.5434 43.5997 31.7193 46.7211 31.7193C49.8722 31.7193 52.3693 34.5731 52.3396 38.0215C52.3396 41.4997 49.8722 44.3238 46.7211 44.3238Z" fill="#A5FA57"/>
</svg>
